Coordinates
version=1
nRows=24
nColumns=24
inDegrees=yes

Units are S.I. units (second, meters, Newtons, ...)
Angles are in degrees.

endheader
time	pelvis_tilt	pelvis_list	pelvis_rotation	pelvis_tx	pelvis_ty	pelvis_tz	hip_flexion_r	hip_adduction_r	hip_rotation_r	knee_angle_r	ankle_angle_r	subtalar_angle_r	mtp_angle_r	hip_flexion_l	hip_adduction_l	hip_rotation_l	knee_angle_l	ankle_angle_l	subtalar_angle_l	mtp_angle_l	lumbar_extension	lumbar_bending	lumbar_rotation
      1.11700000	     -0.86373920	      2.23685823	     -1.40373514	      0.14224024	      1.06177059	      0.30366610	     22.80115292	     -2.13162087	     -0.49507379	    -66.69309369	      4.32671613	    -12.17434407	      0.44156693	     12.27413966	      5.67816166	     -3.31830086	    -15.40923589	      7.54174632	      1.77489190	      0.75329908	      2.91485787	      0.28939925	     -1.50067017
      1.12116667	     -0.89667248	      2.18686010	     -1.45816517	      0.14741367	      1.06239158	      0.30359581	     23.31057272	     -1.96588214	     -0.28414591	    -66.03946985	      4.77688955	    -12.33651091	      0.39306237	     11.91115116	      5.64925370	     -3.29288672	    -15.24267920	      7.68475454	      1.72837100	      0.74307979	      2.91726144	      0.35074056	     -1.50349332
      1.12533333	     -0.92772364	      2.13872505	     -1.51607095	      0.15258944	      1.06299900	      0.30353752	     23.79291586	     -1.79948196	     -0.07450713	    -65.30777414	      5.18991990	    -12.48307205	      0.34504857	     11.53937873	      5.62289785	     -3.26030059	    -15.06025456	      7.81822951	      1.67571893	      0.73184051	      2.91283187	      0.40882380	     -1.50438691
      1.12950000	     -0.98841677	      2.08480117	     -1.54356032	      0.15768911	      1.06353251	      0.30351051	     24.28561486	     -1.62936034	      0.11297426	    -64.49190057	      5.41056856	    -12.55650594	      0.32552851	     11.21192598	      5.58662190	     -3.19349864	    -14.89951965	      7.88519941	      1.64945017	      0.72707759	      2.84725914	      0.41395818	     -1.50954300
      1.13366667	     -1.00814305	      2.04350778	     -1.62554443	      0.16294308	      1.06413852	      0.30347098	     24.70184802	     -1.46492994	      0.32169766	    -63.62159574	      5.95339414	    -12.76493558	      0.24953212	     10.80945782	      5.56621648	     -3.21269168	    -14.68556477	      8.07265829	      1.53344454	      0.70589822	      2.88518467	      0.51007731	     -1.49999860
      1.13783333	     -1.04579418	      2.00610210	     -1.69345041	      0.16816903	      1.06468347	      0.30340504	     25.11348967	     -1.31027894	      0.51861110	    -62.66191223	      6.21656308	    -12.86804121	      0.20585397	     10.42332689	      5.55630854	     -3.15606244	    -14.45508522	      8.16785053	      1.48329467	      0.69323240	      2.92222323	      0.56171056	     -1.49863878
      1.14200000	     -1.13154649	      1.96355571	     -1.72843549	      0.17329966	      1.06510867	      0.30342016	     25.55481705	     -1.14654203	      0.70002353	    -61.63428417	      6.39662317	    -12.93706407	      0.18623957	     10.10967121	      5.52946318	     -3.09587061	    -14.26583385	      8.22913975	      1.44752871	      0.68750027	      2.85926620	      0.55704207	     -1.50235881
      1.14616667	     -1.13873117	      1.92589784	     -1.80821260	      0.17866129	      1.06568186	      0.30337658	     25.86350813	     -0.99192327	      0.88138574	    -60.52412698	      6.71284980	    -13.12269334	      0.13621298	      9.66927622	      5.52022058	     -3.08143756	    -14.00684882	      8.36861686	      1.33568163	      0.67183122	      2.97856930	      0.65745963	     -1.50363128
      1.15033333	     -1.23487998	      1.89276611	     -1.84936180	      0.18378811	      1.06602242	      0.30341588	     26.26484868	     -0.83559314	      1.05824130	    -59.36296135	      6.87262942	    -13.20749936	      0.11301004	      9.36387735	      5.50305538	     -3.01962040	    -13.80815117	      8.43100381	      1.28785811	      0.66450281	      2.91576984	      0.64522901	     -1.50567742
      1.15450000	     -1.24537722	      1.84975789	     -1.91371918	      0.18919745	      1.06654533	      0.30337956	     26.51182652	     -0.68309224	      1.20686059	    -58.10192934	      7.07611083	    -13.41118353	      0.06104744	      8.92013684	      5.48848253	     -2.99495905	    -13.53889507	      8.55244046	      1.16647628	      0.64724967	      3.04886792	      0.73758130	     -1.50714928
      1.15866667	     -1.28811837	      1.80862147	     -1.95920940	      0.19450244	      1.06696126	      0.30338640	     26.77432603	     -0.53007516	      1.34903382	    -56.77855140	      7.19182542	    -13.61791435	      0.00241793	      8.52769637	      5.47223174	     -2.93838361	    -13.29373116	      8.64249564	      1.05161573	      0.62711998	      3.07869205	      0.79009459	     -1.51041854
      1.16283333	     -1.39179205	      1.79217748	     -1.99589962	      0.19965313	      1.06718586	      0.30347311	     27.09739424	     -0.39442518	      1.51323554	    -55.41799383	      7.27980700	    -13.72942666	     -0.02623703	      8.22759912	      5.47115769	     -2.86948333	    -13.09286826	      8.69423194	      0.99453704	      0.61744105	      3.02139145	      0.76225621	     -1.51287557
      1.16700000	     -1.38731933	      1.74279945	     -2.04154039	      0.20515444	      1.06764912	      0.30341282	     27.22842973	     -0.25303088	      1.60039594	    -53.94030073	      7.28773893	    -14.01002991	     -0.09130572	      7.75625517	      5.45819686	     -2.82424036	    -12.80144027	      8.79383361	      0.84696547	      0.59469658	      3.18320560	      0.85384904	     -1.52176683
      1.17116667	     -1.41509781	      1.69530633	     -2.06144476	      0.21052680	      1.06800037	      0.30341118	     27.37534071	     -0.11253735	      1.68427749	    -52.40340531	      7.20867330	    -14.33435991	     -0.17108691	      7.34169108	      5.43828405	     -2.74140785	    -12.55091112	      8.86345462	      0.70241064	      0.56620094	      3.21061806	      0.91717337	     -1.54118421
      1.17533333	     -1.39726124	      1.63730746	     -2.03763965	      0.21580133	      1.06837998	      0.30334048	     27.44579065	      0.01200286	      1.69827356	    -50.78864288	      6.85879078	    -14.98462129	     -0.37636962	      6.88857845	      5.41776327	     -2.57107362	    -12.31072923	      8.89713526	      0.47757750	      0.48992084	      3.01005256	      1.06600667	     -1.62337862
      1.17950000	     -1.47043555	      1.62759759	     -2.07559377	      0.22118227	      1.06855583	      0.30340998	     27.59734737	      0.12093730	      1.79626262	    -49.16733529	      6.87941468	    -15.09860379	     -0.43524508	      6.52871950	      5.43241901	     -2.53275420	    -12.06336948	      8.94919392	      0.41437530	      0.46809180	      3.13509093	      0.96418883	     -1.62142992
      1.18366667	     -1.49562333	      1.56985099	     -2.06977142	      0.22659664	      1.06880447	      0.30338492	     27.64651073	      0.24982843	      1.81805875	    -47.43706484	      6.56063875	    -15.55534595	     -0.60292707	      6.11154011	      5.40598347	     -2.40655808	    -11.81786457	      9.01751713	      0.25168421	      0.40550432	      3.10565137	      1.15138433	     -1.70928395
      1.18783333	     -1.54663461	      1.54519041	     -2.07214316	      0.23201313	      1.06895304	      0.30341225	     27.70523062	      0.34972731	      1.84601170	    -45.67924956	      6.33276439	    -15.92315236	     -0.77246724	      5.72754948	      5.40972891	     -2.30360986	    -11.57875481	      9.07139947	      0.12846756	      0.34064314	      3.16309870	      1.14588021	     -1.77233203
      1.19200000	     -1.59457955	      1.51214105	     -2.05943633	      0.23745753	      1.06907794	      0.30341690	     27.72777318	      0.44723672	      1.84303734	    -43.86990943	      6.09081241	    -16.23992902	     -0.93671884	      5.34128884	      5.40633104	     -2.19931857	    -11.34467277	      9.13430905	      0.01193824	      0.27720355	      3.21055850	      1.17418999	     -1.83682495
      1.19616667	     -1.67551482	      1.49822482	     -2.05053458	      0.24291325	      1.06909187	      0.30345035	     27.76501666	      0.52610053	      1.83742736	    -42.02888250	      5.85883172	    -16.51515332	     -1.08200337	      4.99565863	      5.41984112	     -2.09996929	    -11.12259039	      9.20341019	     -0.09937756	      0.22032306	      3.30392759	      1.16888610	     -1.89109151
      1.20033333	     -1.74229422	      1.47889976	     -2.02473213	      0.24838360	      1.06909240	      0.30345680	     27.75570842	      0.59931882	      1.79693767	    -40.13916570	      5.56905725	    -16.81306524	     -1.23721237	      4.63713997	      5.42938145	     -1.98960247	    -10.90646663	      9.27538824	     -0.21980021	      0.15833925	      3.37509828	      1.18339503	     -1.95872506
      1.20450000	     -1.84783786	      1.49220562	     -2.01243700	      0.25384290	      1.06896153	      0.30354393	     27.77914493	      0.64874195	      1.76056254	    -38.25829200	      5.50186307	    -16.89617859	     -1.29503777	      4.33838149	      5.46414364	     -1.97426484	    -10.72245197	      9.34290750	     -0.30181515	      0.13502974	      3.53860426	      1.02024848	     -1.94877080
      1.20866667	     -1.88877116	      1.44660608	     -1.90375096	      0.25934163	      1.06895773	      0.30342469	     27.67493363	      0.70173554	      1.58750492	    -36.26803471	      4.95696920	    -17.36501790	     -1.52531340	      3.96100493	      5.45148337	     -1.76213064	    -10.53215947	      9.43251069	     -0.46118916	      0.03800492	      3.49609229	      1.11611970	     -2.10875038
      1.21283333	     -2.00309357	      1.48442103	     -1.93458484	      0.26489583	      1.06870973	      0.30355531	     27.66625226	      0.73943686	      1.56971729	    -34.34946657	      4.90621229	    -17.36492688	     -1.57911035	      3.65969546	      5.51215468	     -1.74722367	    -10.33186937	      9.50554775	     -0.52456666	      0.01466206	      3.70817038	      0.99752809	     -2.10644313
